<?xml version="1.0" encoding="utf-8"?>
<!-- Generator: Adobe Illustrator 16.2.0, SVG Export Plug-In . SVG Version: 6.00 Build 0)  -->
<!DOCTYPE svg PUBLIC "-//W3C//DTD SVG 1.1//EN" "http://www.w3.org/Graphics/SVG/1.1/DTD/svg11.dtd">
<svg version="1.1" id="Layer_1" xmlns="http://www.w3.org/2000/svg" xmlns:xlink="http://www.w3.org/1999/xlink" x="0px" y="0px"
	 width="126px" height="126px" viewBox="0 0 126 126" enable-background="new 0 0 126 126" xml:space="preserve">
<g>
	<path fill="#FF6600" d="M125.94,62.999c0,34.761-28.183,62.945-62.941,62.945C28.24,125.943,0.06,97.76,0.06,62.999
		c0-34.763,28.18-62.941,62.939-62.941C97.758,0.058,125.94,28.236,125.94,62.999"/>
	<g>
		<path fill="#FFFFFF" d="M46.222,51.174c0-1.588,0.208-3.002,0.613-4.24c0.403-1.239,1.059-2.279,1.957-3.118
			c0.9-0.844,2.05-1.483,3.46-1.917c1.409-0.434,3.125-0.65,5.146-0.65c2.007,0,3.719,0.217,5.136,0.65
			c1.412,0.434,2.572,1.073,3.472,1.917c0.9,0.838,1.555,1.879,1.955,3.118c0.409,1.238,0.61,2.652,0.61,4.24
			c0,1.606-0.201,3.031-0.61,4.268c-0.4,1.241-1.055,2.28-1.955,3.122c-0.899,0.84-2.06,1.479-3.472,1.912
			c-1.417,0.436-3.129,0.656-5.136,0.656c-2.021,0-3.737-0.22-5.146-0.656c-1.41-0.433-2.56-1.072-3.46-1.912
			c-0.898-0.842-1.554-1.88-1.957-3.122C46.43,54.205,46.222,52.78,46.222,51.174 M62.618,51.317c0-0.815-0.084-1.558-0.243-2.227
			c-0.159-0.671-0.436-1.24-0.833-1.715c-0.401-0.475-0.933-0.842-1.604-1.106c-0.673-0.267-1.519-0.397-2.54-0.397
			c-1.022,0-1.867,0.131-2.536,0.397c-0.677,0.264-1.207,0.631-1.604,1.106c-0.396,0.475-0.671,1.043-0.82,1.715
			c-0.154,0.669-0.23,1.412-0.23,2.227c0,0.813,0.076,1.556,0.23,2.227c0.149,0.671,0.424,1.246,0.82,1.728
			c0.397,0.483,0.927,0.863,1.604,1.133c0.669,0.278,1.514,0.415,2.536,0.415c1.021,0,1.866-0.136,2.54-0.415
			c0.671-0.27,1.204-0.65,1.604-1.133c0.397-0.481,0.675-1.057,0.833-1.728C62.534,52.873,62.618,52.13,62.618,51.317"/>
		<path fill="#FFFFFF" d="M70.521,51.174c0-1.588,0.2-3.002,0.607-4.24c0.401-1.239,1.062-2.279,1.955-3.118
			c0.898-0.844,2.054-1.483,3.463-1.917c1.409-0.434,3.124-0.65,5.147-0.65c2.003,0,3.713,0.217,5.137,0.65
			c1.411,0.434,2.572,1.073,3.471,1.917c0.897,0.838,1.555,1.879,1.956,3.118c0.407,1.238,0.608,2.652,0.608,4.24
			c0,1.606-0.201,3.031-0.608,4.268c-0.401,1.241-1.059,2.28-1.956,3.122c-0.898,0.84-2.06,1.479-3.471,1.912
			c-1.424,0.436-3.134,0.656-5.137,0.656c-2.023,0-3.738-0.22-5.147-0.656c-1.409-0.433-2.564-1.072-3.463-1.912
			c-0.894-0.842-1.554-1.88-1.955-3.122C70.721,54.205,70.521,52.78,70.521,51.174 M86.909,51.317c0-0.815-0.079-1.558-0.238-2.227
			c-0.162-0.671-0.438-1.24-0.835-1.715c-0.397-0.475-0.936-0.842-1.606-1.106c-0.674-0.267-1.516-0.397-2.536-0.397
			s-1.87,0.131-2.541,0.397c-0.674,0.264-1.2,0.631-1.597,1.106c-0.4,0.475-0.677,1.043-0.826,1.715
			c-0.15,0.669-0.227,1.412-0.227,2.227c0,0.813,0.076,1.556,0.227,2.227c0.149,0.671,0.426,1.246,0.826,1.728
			c0.396,0.483,0.923,0.863,1.597,1.133c0.671,0.278,1.521,0.415,2.541,0.415s1.862-0.136,2.536-0.415
			c0.671-0.27,1.209-0.65,1.606-1.133c0.396-0.481,0.673-1.057,0.835-1.728C86.83,52.873,86.909,52.13,86.909,51.317"/>
		<path fill="#FFFFFF" d="M101.835,56.115c0.179,0.161,0.271,0.351,0.271,0.577v3.536c0,0.245-0.092,0.448-0.271,0.623
			c-0.18,0.168-0.4,0.25-0.664,0.25h-1.604h-0.024h-3.677c-0.301,0-0.551-0.094-0.761-0.278c-0.208-0.19-0.308-0.416-0.308-0.679
			v-1.979v-0.027V36.913v-0.928c0-0.224,0.086-0.422,0.265-0.594c0.182-0.167,0.4-0.25,0.662-0.25h3.987
			c0.266,0,0.484,0.083,0.668,0.25c0.174,0.172,0.265,0.37,0.265,0.594v2.68V54.12c0,1.434,0.004,1.194,0.004,1.726h0.494h0.057
			C101.441,55.863,101.655,55.954,101.835,56.115"/>
		<path fill="#FFFFFF" d="M58.04,85.506c0.187,0.17,0.282,0.369,0.282,0.605v3.699c0,0.258-0.095,0.469-0.282,0.654
			c-0.188,0.176-0.421,0.26-0.697,0.26h-1.678h-0.024h-3.85c-0.314,0-0.577-0.098-0.797-0.291c-0.218-0.199-0.32-0.434-0.32-0.711
			V87.65v-0.027V65.41v-0.973c0-0.235,0.087-0.444,0.275-0.621c0.19-0.176,0.419-0.264,0.694-0.264h4.173
			c0.276,0,0.506,0.088,0.698,0.264c0.183,0.177,0.278,0.386,0.278,0.621v0.811v18.17c0,1.502,0.004,1.252,0.004,1.809h0.516h0.061
			C57.628,85.246,57.853,85.34,58.04,85.506"/>
		<path fill="#FFFFFF" d="M44.759,57.021l-1.527-1.979c-0.159-0.219-0.353-0.339-0.584-0.359c-0.228-0.017-0.463,0.06-0.699,0.238
			c-0.425,0.282-1.932,1.736-6.043,1.736c-3,0-6.532-1.607-6.532-5.46c0-3.792,3.75-5.46,6.532-5.46
			c3.861,0,5.618,1.454,6.043,1.735c0.236,0.179,0.471,0.256,0.699,0.238c0.231-0.021,0.426-0.142,0.584-0.36l1.527-1.981
			c0.263-0.319,0.263-0.327,0.36-0.457c0.554-0.702-0.517-1.397-0.556-1.417c-0.701-0.48-1.098-0.693-1.706-1.006
			c-0.605-0.309-1.25-0.558-1.925-0.746c-0.683-0.187-1.42-0.324-2.222-0.407c-0.792-0.075-1.727-0.115-2.807-0.115
			c-2.391,0-4.341,0.282-5.842,0.836c-1.508,0.559-6.373,2.832-6.373,8.924c0,6.354,4.865,8.795,6.373,9.354
			c1.501,0.556,3.452,0.836,5.842,0.836c1.08,0,2.015-0.04,2.807-0.117c0.801-0.083,1.539-0.217,2.222-0.405
			c0.674-0.189,1.32-0.438,1.925-0.746c0.608-0.311,1.004-0.524,1.706-1.004c0.039-0.02,1.109-0.716,0.556-1.42
			C45.022,57.349,45.022,57.343,44.759,57.021"/>
		<path fill="#FFFFFF" d="M25.021,89.914c0,0.254,0.099,0.465,0.299,0.633c0.191,0.17,0.434,0.256,0.703,0.256
			c0,0,4.735-0.02,4.921-0.066c0.185-0.033,0.277-0.174,0.277-0.408l0.038-0.604c0.78,0.305,1.666,0.57,2.662,0.795
			c1.013,0.227,2.144,0.34,3.385,0.34c2.086,0,3.859-0.227,5.324-0.682c1.469-0.453,2.663-1.107,3.586-1.977
			c0.929-0.867,1.596-1.938,2.008-3.23c0.415-1.287,0.619-2.773,0.619-4.441c0-1.676-0.215-3.156-0.648-4.445
			c-0.43-1.289-1.112-2.373-2.039-3.268c-0.924-0.881-2.127-1.549-3.616-2c-1.483-0.451-3.275-0.684-5.36-0.684
			c-1.237,0-2.34,0.082-3.316,0.24c-0.973,0.156-1.835,0.381-2.604,0.678v-4.275v-0.033v-2.065c0-0.025-0.002-0.055-0.008-0.079
			v-0.063c-0.021-0.237-0.123-0.44-0.308-0.606c-0.186-0.171-0.425-0.253-0.697-0.253h-0.109h-4.136
			c-0.269,0-0.502,0.089-0.688,0.264c-0.19,0.176-0.283,0.398-0.283,0.649L25.021,89.914z M42.364,82.965
			c-0.165,0.678-0.452,1.258-0.871,1.74c-0.415,0.479-0.968,0.852-1.664,1.107c-0.699,0.258-1.578,0.381-2.649,0.381
			c-1.061,0-1.938-0.123-2.637-0.381c-0.696-0.256-1.253-0.629-1.668-1.107c-0.412-0.482-0.7-1.063-0.868-1.74
			c-0.171-0.68-0.254-1.443-0.254-2.287c0-0.846,0.083-1.623,0.254-2.322c0.167-0.695,0.456-1.297,0.868-1.797
			c0.415-0.506,0.972-0.893,1.668-1.17c0.699-0.273,1.576-0.412,2.637-0.412c1.072,0,1.95,0.139,2.649,0.412
			c0.696,0.277,1.249,0.664,1.664,1.17c0.419,0.5,0.706,1.102,0.871,1.797c0.166,0.699,0.255,1.477,0.255,2.322
			C42.619,81.521,42.53,82.285,42.364,82.965"/>
		<path fill="#FFFFFF" d="M79.089,70.404c0.192,0.17,0.286,0.379,0.286,0.617v0.594v2.98v6.201c0,1.748-0.138,3.254-0.419,4.51
			c-0.276,1.264-0.769,2.287-1.488,3.09c-0.718,0.793-1.709,1.381-2.967,1.75c-1.259,0.379-2.862,0.566-4.809,0.566
			c-1.953,0-3.56-0.188-4.822-0.566c-1.276-0.369-2.275-0.957-2.996-1.75c-0.733-0.803-1.238-1.82-1.525-3.072
			c-0.286-1.25-0.425-2.752-0.425-4.504v-6.225v-2.184v-1.391c0-0.238,0.091-0.447,0.276-0.617c0.189-0.18,0.421-0.271,0.698-0.271
			h0.559h2.745h0.412c0.273,0,0.506,0.092,0.706,0.271c0.202,0.17,0.299,0.379,0.299,0.617v3.574v6.346
			c0,0.705-0.005,1.363,0.041,1.963c0.049,0.6,0.205,1.109,0.473,1.531c0.269,0.428,0.68,0.756,1.238,0.992
			c0.564,0.234,1.343,0.354,2.348,0.354c1.004,0,1.779-0.119,2.336-0.354c0.548-0.236,0.956-0.572,1.223-1.004
			c0.265-0.436,0.419-0.951,0.473-1.551c0.046-0.6,0.069-1.254,0.069-1.961v-6.316v-3.574c0-0.238,0.102-0.447,0.282-0.617
			c0.185-0.18,0.42-0.271,0.696-0.271h0.5h1.742h1.359C78.677,70.133,78.905,70.225,79.089,70.404"/>
		<path fill="#FFFFFF" d="M87.063,78.459c0.072-0.609,0.223-1.152,0.426-1.637c0.211-0.48,0.521-0.889,0.933-1.227
			c0.412-0.332,0.933-0.596,1.567-0.781c0.626-0.188,1.413-0.283,2.355-0.283c0.943,0,1.7,0.102,2.263,0.297
			c0.559,0.199,0.991,0.473,1.294,0.813c0.308,0.348,0.518,0.758,0.639,1.24c0.111,0.484,0.193,1.01,0.233,1.578h-6.129
			c-0.492,0-0.513,0.494-0.513,0.494v2.994c0,0,0,0.439,0.513,0.439h11.646c0.025-1.102,0.025-2.172,0-3.203
			c-0.014-1.029-0.118-2.006-0.307-2.918c-0.189-0.918-0.481-1.75-0.89-2.494c-0.4-0.754-0.967-1.395-1.691-1.938
			c-0.73-0.541-1.656-0.959-2.776-1.26c-1.122-0.289-2.479-0.441-4.075-0.441c-2.341,0-4.247,0.283-5.724,0.846
			c-1.479,0.563-2.631,1.313-3.469,2.254c-0.835,0.947-1.406,2.045-1.712,3.293c-0.31,1.25-0.462,2.564-0.462,3.945
			c0,1.416,0.152,2.75,0.462,3.998c0.306,1.25,0.866,2.348,1.693,3.289c0.828,0.947,1.985,1.693,3.474,2.244
			c1.482,0.549,3.407,0.826,5.767,0.826c1.067,0,1.99-0.039,2.771-0.115c0.791-0.08,1.519-0.215,2.194-0.4
			c0.664-0.186,1.302-0.432,1.902-0.736c0.598-0.309,0.988-0.518,1.683-0.992c0.037-0.02,1.094-0.707,0.546-1.4
			c-0.096-0.127-0.096-0.135-0.356-0.451l-1.504-1.955c-0.158-0.215-0.35-0.334-0.578-0.354c-0.227-0.018-0.457,0.057-0.692,0.234
			c-0.416,0.277-0.799,0.52-1.15,0.723c-0.357,0.209-0.753,0.387-1.182,0.531c-0.435,0.15-0.937,0.262-1.505,0.342
			c-0.572,0.078-1.28,0.115-2.128,0.115c-0.983,0-1.804-0.086-2.465-0.275c-0.657-0.188-1.2-0.461-1.623-0.816
			c-0.422-0.354-0.747-0.775-0.975-1.271c-0.226-0.486-0.383-1.027-0.455-1.619C86.822,80.631,87.063,78.459,87.063,78.459"/>
		<path fill="#FFFFFF" d="M70.521,51.174c0-1.588,0.2-3.002,0.607-4.24c0.401-1.239,1.062-2.279,1.955-3.118
			c0.898-0.844,2.054-1.483,3.463-1.917c1.409-0.434,3.124-0.65,5.147-0.65c2.003,0,3.713,0.217,5.137,0.65
			c1.411,0.434,2.572,1.073,3.471,1.917c0.897,0.838,1.555,1.879,1.956,3.118c0.407,1.238,0.608,2.652,0.608,4.24
			c0,1.606-0.201,3.031-0.608,4.268c-0.401,1.241-1.059,2.28-1.956,3.122c-0.898,0.84-2.06,1.479-3.471,1.912
			c-1.424,0.436-3.134,0.656-5.137,0.656c-2.023,0-3.738-0.22-5.147-0.656c-1.409-0.433-2.564-1.072-3.463-1.912
			c-0.894-0.842-1.554-1.88-1.955-3.122C70.721,54.205,70.521,52.78,70.521,51.174 M86.909,51.317c0-0.815-0.079-1.558-0.238-2.227
			c-0.162-0.671-0.438-1.24-0.835-1.715c-0.397-0.475-0.936-0.842-1.606-1.106c-0.674-0.267-1.516-0.397-2.536-0.397
			s-1.87,0.131-2.541,0.397c-0.674,0.264-1.2,0.631-1.597,1.106c-0.4,0.475-0.677,1.043-0.826,1.715
			c-0.15,0.669-0.227,1.412-0.227,2.227c0,0.813,0.076,1.556,0.227,2.227c0.149,0.671,0.426,1.246,0.826,1.728
			c0.396,0.483,0.923,0.863,1.597,1.133c0.671,0.278,1.521,0.415,2.541,0.415s1.862-0.136,2.536-0.415
			c0.671-0.27,1.209-0.65,1.606-1.133c0.396-0.481,0.673-1.057,0.835-1.728C86.83,52.873,86.909,52.13,86.909,51.317"/>
		<path fill="#FFFFFF" d="M87.063,78.459c0.072-0.609,0.223-1.152,0.426-1.637c0.211-0.48,0.521-0.889,0.933-1.227
			c0.412-0.332,0.933-0.596,1.567-0.781c0.626-0.188,1.413-0.283,2.355-0.283c0.943,0,1.7,0.102,2.263,0.297
			c0.559,0.199,0.991,0.473,1.294,0.813c0.308,0.348,0.518,0.758,0.639,1.24c0.111,0.484,0.193,1.01,0.233,1.578h-6.129
			c-0.492,0-0.513,0.494-0.513,0.494v2.994c0,0,0,0.439,0.513,0.439h11.646c0.025-1.102,0.025-2.172,0-3.203
			c-0.014-1.029-0.118-2.006-0.307-2.918c-0.189-0.918-0.481-1.75-0.89-2.494c-0.4-0.754-0.967-1.395-1.691-1.938
			c-0.73-0.541-1.656-0.959-2.776-1.26c-1.122-0.289-2.479-0.441-4.075-0.441c-2.341,0-4.247,0.283-5.724,0.846
			c-1.479,0.563-2.631,1.313-3.469,2.254c-0.835,0.947-1.406,2.045-1.712,3.293c-0.31,1.25-0.462,2.564-0.462,3.945
			c0,1.416,0.152,2.75,0.462,3.998c0.306,1.25,0.866,2.348,1.693,3.289c0.828,0.947,1.985,1.693,3.474,2.244
			c1.482,0.549,3.407,0.826,5.767,0.826c1.067,0,1.99-0.039,2.771-0.115c0.791-0.08,1.519-0.215,2.194-0.4
			c0.664-0.186,1.302-0.432,1.902-0.736c0.598-0.309,0.988-0.518,1.683-0.992c0.037-0.02,1.094-0.707,0.546-1.4
			c-0.096-0.127-0.096-0.135-0.356-0.451l-1.504-1.955c-0.158-0.215-0.35-0.334-0.578-0.354c-0.227-0.018-0.457,0.057-0.692,0.234
			c-0.416,0.277-0.799,0.52-1.15,0.723c-0.357,0.209-0.753,0.387-1.182,0.531c-0.435,0.15-0.937,0.262-1.505,0.342
			c-0.572,0.078-1.28,0.115-2.128,0.115c-0.983,0-1.804-0.086-2.465-0.275c-0.657-0.188-1.2-0.461-1.623-0.816
			c-0.422-0.354-0.747-0.775-0.975-1.271c-0.226-0.486-0.383-1.027-0.455-1.619C86.822,80.631,87.063,78.459,87.063,78.459"/>
	</g>
</g>
</svg>
