<?xml version="1.0" standalone="no"?>
<!DOCTYPE svg PUBLIC "-//W3C//DTD SVG 1.1//EN" "http://www.w3.org/Graphics/SVG/1.1/DTD/svg11.dtd" >
<svg xmlns="http://www.w3.org/2000/svg">
<metadata>
This is a custom SVG webfont generated by Font Squirrel.
Designer    : Dino dos Santos
Foundry     : Dino dos Santos DSType
Foundry URL : httpwwwdstypecom
</metadata>
<defs>
<font id="webfonti9ome0Ec" horiz-adv-x="195" >
<font-face units-per-em="1000" ascent="750" descent="-250" />
<missing-glyph horiz-adv-x="180" />
<glyph unicode=" "  horiz-adv-x="180" />
<glyph unicode="&#x09;" horiz-adv-x="180" />
<glyph unicode="&#xa0;" horiz-adv-x="180" />
<glyph unicode="!" d="M60 122h75v-122h-75v122zM60 680h75v-268l-9 -200h-57l-9 200v268z" />
<glyph unicode="&#x22;" horiz-adv-x="377" d="M60 680h75v-80l-9 -103h-57l-9 103v80zM242 680h75v-80l-8 -103h-58l-9 103v80z" />
<glyph unicode="#" horiz-adv-x="575" d="M505 330h-91v-138h91v-55h-91v-92h-55v92h-143v-92h-55v92h-91v55h91v138h-91v55h91v92h55v-92h143v92h55v-92h91v-55zM216 330v-138h143v138h-143z" />
<glyph unicode="$" horiz-adv-x="559" d="M302 -100h-43v90q-121 2 -199 18v134h64v-73h145q70 0 105.5 32t35.5 83q0 24 -11 43t-23 30t-39.5 22.5t-39.5 15.5t-45 13q-84 24 -138 74t-54 130q0 84 55 128t144 49v91h43v-90q73 -2 157 -18v-135h-64v74h-114q-132 0 -132 -96q0 -90 164 -134q87 -23 136.5 -68 t49.5 -126q0 -85 -55 -136t-142 -59v-92z" />
<glyph unicode="%" horiz-adv-x="682" d="M494 680h60l-357 -680h-60zM179 634q-56 0 -56 -84q0 -85 56 -85q55 0 55 85q0 84 -55 84zM179 420q-109 0 -109 130t109 130q108 0 108 -130t-108 -130zM504 214q-56 0 -56 -84q0 -85 56 -85q55 0 55 85q0 84 -55 84zM504 0q-109 0 -109 130t109 130q108 0 108 -130 t-108 -130z" />
<glyph unicode="&#x26;" horiz-adv-x="677" d="M543 352h76q-24 -150 -93 -241l107 -111h-110l-54 55q-80 -65 -190 -65q-105 0 -159.5 49.5t-54.5 131.5q0 106 120 181q-42 51 -61.5 87t-19.5 79q0 82 61.5 127t158.5 45q46 0 135 -18v-135h-64v74h-70q-132 0 -132 -98q0 -34 28 -72.5t107 -122.5l144 -153 q53 71 71 187zM285 58q71 0 131 50l-184 193q-85 -50 -85 -124q0 -46 30.5 -82.5t107.5 -36.5z" />
<glyph unicode="'" d="M60 680h75v-80l-9 -103h-57l-9 103v80z" />
<glyph unicode="(" horiz-adv-x="299" d="M52 340q0 128 39 257.5t112 232.5h68q-138 -239 -138 -490q0 -246 138 -490h-68q-73 102 -112 232.5t-39 257.5z" />
<glyph unicode=")" horiz-adv-x="299" d="M246 340q0 -127 -38.5 -257.5t-111.5 -232.5h-69q138 244 138 490q0 251 -138 490h69q73 -102 111.5 -232t38.5 -258z" />
<glyph unicode="*" horiz-adv-x="422" d="M211 505l-77 -94l-25 25l77 92l-114 27l8 32l114 -28v121h35v-121l113 28l8 -32l-114 -27l78 -92l-25 -25z" />
<glyph unicode="+" horiz-adv-x="500" d="M285 445v-145h145v-70h-145v-145h-70v145h-145v70h145v145h70z" />
<glyph unicode="," d="M60 -130v252h75v-72q0 -92 -28 -180h-47z" />
<glyph unicode="-" horiz-adv-x="500" d="M430 230h-360v70h360v-70z" />
<glyph unicode="." d="M60 122h75v-122h-75v122z" />
<glyph unicode="/" horiz-adv-x="467" d="M375 680h75l-358 -680h-75z" />
<glyph unicode="0" horiz-adv-x="580" d="M290 -10q-60 0 -103.5 21t-67.5 52.5t-38 81t-17.5 93t-3.5 102.5t3.5 102.5t17.5 93t38 81t67.5 52.5t103.5 21q50 0 88.5 -13.5t63 -40t41 -57t24 -73.5t10.5 -80.5t3 -85.5t-3 -85.5t-10.5 -80.5t-24 -73.5t-41 -57t-63 -40t-88.5 -13.5zM290 69q33 0 57.5 11 t39.5 33.5t24.5 45.5t13.5 58.5t5 60.5t1 62t-1 62t-5 60.5t-13.5 58.5t-24.5 45.5t-39.5 33.5t-57.5 11t-57.5 -11t-39.5 -33.5t-24.5 -45.5t-13.5 -58.5t-5 -60.5t-1 -62t1 -62t5 -60.5t13.5 -58.5t24.5 -45.5t39.5 -33.5t57.5 -11z" />
<glyph unicode="1" horiz-adv-x="344" d="M321 0h-221v64h67v532l-127 -71l-33 64l165 96h82v-621h67v-64z" />
<glyph unicode="2" horiz-adv-x="502" d="M109 611v-74h-64v135q89 18 178 18q97 0 159 -44t62 -131q0 -52 -20 -96.5t-83.5 -123t-198.5 -218.5v-2h310v-75h-417v81l145 155l90 100t57 75.5t20.5 49t7.5 53.5q0 97 -134 97h-112z" />
<glyph unicode="3" horiz-adv-x="484" d="M99 142v-73h110q69 0 102.5 29t33.5 78q0 67 -55 101.5t-200 76.5v47l211 204h-259v75h377v-73l-223 -207q127 -32 182.5 -86.5t55.5 -135.5q0 -90 -59.5 -139t-161.5 -49q-89 0 -178 18v134h64z" />
<glyph unicode="4" horiz-adv-x="532" d="M347 392h64v-162h76v-75h-76v-155h-86v155h-295v72l253 458h90l-254 -455h206z" />
<glyph unicode="5" horiz-adv-x="484" d="M99 142v-73h110q69 0 102.5 29t33.5 78q0 68 -63 108t-222 85l14 311h331v-75h-256l-8 -180q163 -44 228 -103.5t65 -143.5q0 -90 -59.5 -139t-161.5 -49q-89 0 -178 18v134h64z" />
<glyph unicode="6" horiz-adv-x="567" d="M480 672v-135h-64v74h-79q-48 0 -83.5 -18.5t-56 -51t-31 -68t-14.5 -78.5q72 11 123 11q120 0 176 -48t56 -156q0 -100 -56 -156t-157 -56q-59 0 -102 19t-68 49.5t-40 78t-19.5 94.5t-4.5 109q0 68 13.5 127t43 111t84 82t129.5 30q63 0 150 -18zM295 69q126 0 126 133 q0 68 -36 99t-111 31h-124q0 -117 12 -162q28 -101 133 -101z" />
<glyph unicode="7" horiz-adv-x="465" d="M435 610l-249 -610h-90l250 605h-255v-68h-64v143h408v-70z" />
<glyph unicode="8" horiz-adv-x="570" d="M285 396q63 27 96 55t33 75q0 46 -30 67t-99 21t-99 -21t-30 -67q0 -47 33 -75.5t96 -54.5zM285 690q97 0 154.5 -41.5t57.5 -120.5q0 -35 -12.5 -63t-35.5 -48t-42 -31t-46 -23q72 -34 110.5 -79t38.5 -116q0 -89 -61 -133.5t-164 -44.5q-104 0 -164.5 44.5t-60.5 133.5 q0 70 37.5 112.5t110.5 77.5q-136 61 -136 170q0 79 58 120.5t155 41.5zM285 315q-69 -29 -102.5 -61t-33.5 -88q0 -100 136 -100t136 100q0 56 -34 88t-102 61z" />
<glyph unicode="9" horiz-adv-x="567" d="M274 690q59 0 102 -19t67.5 -50t39.5 -78.5t19.5 -94t4.5 -108.5q0 -68 -13.5 -127t-43 -111t-84 -82t-129.5 -30q-63 0 -150 18v134h64v-73h79q165 0 186 216q-74 -11 -124 -11q-121 0 -176.5 47.5t-55.5 155.5q0 100 56 156.5t158 56.5zM272 611q-126 0 -126 -134 q0 -68 36 -99t112 -31h123q0 118 -12 162q-28 102 -133 102z" />
<glyph unicode=":" d="M60 122h75v-122h-75v122zM60 422h75v-122h-75v122z" />
<glyph unicode=";" d="M60 -130v252h75v-72q0 -92 -28 -180h-47zM60 422h75v-122h-75v122z" />
<glyph unicode="&#x3c;" horiz-adv-x="422" d="M70 291l282 163v-77l-200 -112l200 -113v-76l-282 163v52z" />
<glyph unicode="=" horiz-adv-x="500" d="M430 130h-360v65h360v-65zM430 335h-360v65h360v-65z" />
<glyph unicode="&#x3e;" horiz-adv-x="422" d="M70 454l282 -163v-52l-282 -163v76l200 113l-200 112v77z" />
<glyph unicode="?" horiz-adv-x="501" d="M115 611v-74h-64v135q89 18 178 18q98 0 159.5 -45.5t61.5 -137.5q0 -45 -13 -80t-32 -57t-52 -39.5t-61 -27t-70 -19.5l-4 -72h-64l-5 127q115 28 163.5 62t48.5 104q0 48 -32.5 77t-99.5 29h-114zM149 122h75v-122h-75v122z" />
<glyph unicode="@" horiz-adv-x="850" d="M504 0l-3 42h-1q-40 -49 -108 -49q-49 0 -78.5 27.5t-29.5 74.5q0 104 119 104h98v42q0 34 -15.5 50.5t-57.5 16.5h-121v36q73 13 126 13q62 0 93 -25.5t31 -88.5v-194q53 0 91 18.5t58 49t28.5 62t8.5 65.5q0 125 -87 202.5t-213 77.5q-147 0 -241 -97.5t-94 -253.5 q0 -142 86.5 -234.5t219.5 -92.5l-5 -46q-155 0 -254.5 106t-99.5 267q0 174 110 286.5t278 112.5q148 0 250 -91.5t102 -234.5q0 -110 -63 -178t-177 -68h-51zM501 121v39h-85q-76 0 -76 -62q0 -59 74 -59q33 0 60 21.5t27 60.5z" />
<glyph unicode="A" horiz-adv-x="672" d="M436 64h59l-40 131h-239l-40 -131h60v-64h-226v64h72l195 621h118l195 -621h72v-64h-226v64zM335 582l-97 -317h195l-97 317h-1z" />
<glyph unicode="B" horiz-adv-x="602" d="M437 354v-2q56 -16 83 -60.5t27 -105.5q0 -85 -50.5 -135.5t-140.5 -50.5h-329v64h68v552h-68v64h310q89 0 140 -49.5t51 -128.5q0 -52 -23 -91.5t-68 -56.5zM181 75h167q52 0 81.5 31t29.5 87q0 59 -29 88.5t-82 29.5h-167v-236zM330 605h-149v-219h149q52 0 80.5 28 t28.5 81q0 50 -29 80t-80 30z" />
<glyph unicode="C" horiz-adv-x="555" d="M502 142v-134q-87 -18 -177 -18q-77 0 -131.5 30t-82 82.5t-39.5 110t-12 127.5t12 127.5t39.5 110t82 82.5t131.5 30q90 0 177 -18v-135h-63v74h-104q-186 0 -186 -271t186 -271h104v73h63z" />
<glyph unicode="D" horiz-adv-x="647" d="M322 0h-295v64h68v552h-68v64h295q265 0 265 -340t-265 -340zM181 75h134q184 0 184 265t-184 265h-134v-530z" />
<glyph unicode="E" horiz-adv-x="542" d="M490 142v-142h-463v64h68v552h-68v64h463v-143h-64v68h-245v-219h260v-75h-260v-236h245v67h64z" />
<glyph unicode="F" horiz-adv-x="532" d="M249 0h-222v64h68v552h-68v64h463v-143h-64v68h-245v-244h270v-75h-270v-222h68v-64z" />
<glyph unicode="G" horiz-adv-x="592" d="M60 340q0 70 12 127.5t39.5 110t82 82.5t131.5 30q110 0 197 -18v-135h-63v74h-124q-186 0 -186 -271t176 -271h111v220h-134v65h220v-346q-87 -18 -197 -18q-77 0 -131.5 30t-82 82.5t-39.5 110t-12 127.5z" />
<glyph unicode="H" horiz-adv-x="634" d="M249 616h-68v-230h271v230h-67v64h221v-64h-67v-552h67v-64h-221v64h67v247h-271v-247h68v-64h-222v64h68v552h-68v64h222v-64z" />
<glyph unicode="I" horiz-adv-x="276" d="M249 616h-68v-552h68v-64h-222v64h68v552h-68v64h222v-64z" />
<glyph unicode="J" horiz-adv-x="332" d="M305 616h-68v-506q0 -53 -30 -86.5t-97 -33.5q-40 0 -100 18v61h80q61 0 61 51v496h-67v64h221v-64z" />
<glyph unicode="K" horiz-adv-x="617" d="M249 0h-222v64h68v552h-68v64h222v-64h-68v-227h90l164 227h-55v64h226v-64h-69l-190 -259l203 -293h56v-64h-229v64h64l-170 245h-90v-245h68v-64z" />
<glyph unicode="L" horiz-adv-x="497" d="M472 142v-142h-445v64h68v552h-68v64h222v-64h-68v-541h228v67h63z" />
<glyph unicode="M" horiz-adv-x="782" d="M765 0h-219v64h69l-37 458h-1l-152 -522h-70l-156 522h-2l-32 -458h71v-64h-219v64h67l36 552h-64v64h175l159 -531h2l152 531h175v-64h-63l41 -552h68v-64z" />
<glyph unicode="N" horiz-adv-x="657" d="M630 616h-68v-616h-86l-296 515h-1v-451h67v-64h-219v64h68v552h-68v64h154l296 -526h2v462h-68v64h219v-64z" />
<glyph unicode="O" horiz-adv-x="635" d="M317 -10q-257 0 -257 350t257 350q258 0 258 -350t-258 -350zM317 69q169 0 169 271t-169 271q-168 0 -168 -271t168 -271z" />
<glyph unicode="P" horiz-adv-x="590" d="M249 0h-222v64h68v552h-68v64h313q94 0 147 -55t53 -145q0 -93 -52.5 -146t-147.5 -53h-159v-217h68v-64zM327 605h-146v-249h146q124 0 124 124q0 60 -33 92.5t-91 32.5z" />
<glyph unicode="Q" horiz-adv-x="635" d="M396 -173q-120 0 -120 118v49q-216 23 -216 346q0 350 257 350q258 0 258 -350q0 -322 -215 -347v-43q0 -30 11 -41.5t40 -11.5h83v-52q-65 -18 -98 -18zM317 69q169 0 169 271t-169 271q-168 0 -168 -271t168 -271z" />
<glyph unicode="R" horiz-adv-x="630" d="M249 0h-222v64h68v552h-68v64h313q93 0 146.5 -58t53.5 -146q0 -75 -37 -125t-105 -63l139 -224h67v-64h-132l-167 274h-124v-210h68v-64zM330 605h-149v-256h102q87 0 127.5 26t40.5 101q0 58 -32.5 93.5t-88.5 35.5z" />
<glyph unicode="S" horiz-adv-x="541" d="M115 142v-73h145q70 0 105.5 32t35.5 83q0 24 -11 43t-22.5 30t-39.5 22.5t-39.5 15l-44.5 13.5q-84 24 -138.5 74t-54.5 130q0 89 62 133.5t159 44.5q89 0 178 -18v-135h-64v74h-114q-132 0 -132 -96q0 -90 164 -134q87 -23 136.5 -68t49.5 -126q0 -93 -64.5 -145 t-163.5 -52q-122 0 -211 18v134h64z" />
<glyph unicode="T" horiz-adv-x="526" d="M374 0h-222v64h68v541h-131v-68h-64v143h476v-143h-64v68h-131v-541h68v-64z" />
<glyph unicode="U" horiz-adv-x="651" d="M249 616h-68v-376q0 -33 5 -59t18.5 -53.5t44.5 -43t78 -15.5q143 0 143 171v376h-68v64h222v-64h-68v-376q0 -124 -60 -187t-169 -63q-110 0 -171 63t-61 187v376h-68v64h222v-64z" />
<glyph unicode="V" horiz-adv-x="672" d="M236 616h-60l159 -516h2l158 516h-59v64h226v-64h-72l-195 -621h-118l-195 621h-72v64h226v-64z" />
<glyph unicode="W" horiz-adv-x="887" d="M877 616h-67l-148 -621h-102l-117 522h-2l-110 -522h-101l-153 621h-67v64h229v-64h-61l110 -482h2l108 551h95l118 -551h2l100 482h-59v64h223v-64z" />
<glyph unicode="X" horiz-adv-x="616" d="M605 0h-238v64h68l-139 214l-136 -214h76v-64h-225v64h52l186 286l-171 266h-67v64h236v-64h-58l127 -196l118 196h-55v64h226v-64h-71l-169 -273l181 -279h59v-64z" />
<glyph unicode="Y" horiz-adv-x="627" d="M239 616h-65l140 -286h2l141 286h-66v64h226v-64h-67l-194 -384v-168h67v-64h-221v64h67v168l-193 384h-66v64h229v-64z" />
<glyph unicode="Z" horiz-adv-x="530" d="M487 142v-142h-445v65l328 540h-244v-68h-64v143h416v-65l-327 -540h273v67h63z" />
<glyph unicode="[" horiz-adv-x="302" d="M275 830v-75h-119v-830h119v-75h-205v980h205z" />
<glyph unicode="\" horiz-adv-x="467" d="M17 680h75l358 -680h-75z" />
<glyph unicode="]" horiz-adv-x="302" d="M27 755v75h205v-980h-205v75h119v830h-119z" />
<glyph unicode="^" horiz-adv-x="447" d="M190 500h67l130 -240h-68l-95 170l-95 -170h-69z" />
<glyph unicode="_" horiz-adv-x="500" d="M430 -100h-360v57h360v-57z" />
<glyph unicode="`" horiz-adv-x="274" d="M60 700h89l65 -140h-67z" />
<glyph unicode="a" horiz-adv-x="529" d="M252 440h-172v52q105 18 179 18q89 0 133 -36.5t44 -126.5v-283h75v-64h-150l-5 61h-2q-32 -40 -67.5 -55.5t-86.5 -15.5q-70 0 -112 40t-42 106q0 78 46.5 113.5t123.5 35.5h140v58q0 50 -22 73.5t-82 23.5zM356 172v56h-122q-108 0 -108 -88q0 -43 29 -64t76 -21t86 31 t39 86z" />
<glyph unicode="b" horiz-adv-x="560" d="M289 0h-262v64h68v572h-68v64h148v-261h2q54 71 142 71q191 0 191 -259q0 -119 -54.5 -185t-166.5 -66zM175 326v-259h110q141 0 141 184q0 90 -29 141t-103 51q-47 0 -83 -31.5t-36 -85.5z" />
<glyph unicode="c" horiz-adv-x="445" d="M50 250q0 260 217 260q63 0 150 -18v-116h-63v64h-87q-133 0 -133 -190t133 -190h150v-52q-87 -18 -150 -18q-217 0 -217 260z" />
<glyph unicode="d" horiz-adv-x="550" d="M532 0h-142l-5 61h-2q-54 -71 -142 -71q-191 0 -191 260q0 121 54 190.5t165 69.5q52 0 116 -9v135h-68v64h148v-636h67v-64zM385 174v266h-110q-74 0 -107.5 -51.5t-33.5 -138.5q0 -91 29 -142.5t103 -51.5q47 0 83 31.5t36 86.5z" />
<glyph unicode="e" horiz-adv-x="515" d="M319 226h-184q4 -166 132 -166h165v-52q-87 -18 -165 -18q-217 0 -217 260q0 121 56.5 190.5t172.5 69.5q88 0 137 -44t49 -104q0 -59 -33 -97.5t-113 -38.5zM277 440q-67 0 -101.5 -43t-39.5 -115h163q46 0 66 22.5t20 54.5q0 33 -29 57t-79 24z" />
<glyph unicode="f" horiz-adv-x="290" d="M262 0h-235v64h68v372h-70v49l70 15v92q0 118 120 118q37 0 97 -18v-52h-82q-30 0 -42.5 -11.5t-12.5 -41.5v-87h87v-64h-87v-372h87v-64z" />
<glyph unicode="g" horiz-adv-x="550" d="M532 436h-67v-386q0 -260 -218 -260q-68 0 -157 18v52h161q134 0 134 182v19h-2q-54 -71 -142 -71q-191 0 -191 259q0 119 54.5 185t166.5 66h261v-64zM385 174v259h-110q-141 0 -141 -184q0 -91 29 -142t103 -51q47 0 83 31.5t36 86.5z" />
<glyph unicode="h" horiz-adv-x="575" d="M557 0h-212v64h65v288q0 43 -30.5 68t-75.5 25q-48 0 -88.5 -32t-40.5 -86v-263h67v-64h-215v64h68v572h-68v64h148v-261h2q56 71 158 71q74 0 114.5 -42t40.5 -111v-293h67v-64z" />
<glyph unicode="i" horiz-adv-x="260" d="M242 0h-215v64h68v372h-68v64h148v-436h67v-64zM95 700h80v-123h-80v123z" />
<glyph unicode="j" horiz-adv-x="222" d="M85 -200v636h-68v64h148v-500q0 -112 -28 -200h-52zM85 700h80v-123h-80v123z" />
<glyph unicode="k" horiz-adv-x="560" d="M542 0h-212v64h55l-143 165h-67v-165h67v-64h-215v64h68v572h-68v64h148v-409h72l128 145h-40v64h207v-64h-70l-151 -172l174 -200h47v-64z" />
<glyph unicode="l" horiz-adv-x="260" d="M242 0h-215v64h68v572h-68v64h148v-636h67v-64z" />
<glyph unicode="m" horiz-adv-x="890" d="M557 0h-212v64h65v288q0 43 -30.5 68t-75.5 25q-48 0 -88.5 -32t-40.5 -86v-263h67v-64h-215v64h68v372h-68v64h143l5 -61h2q56 71 158 71q109 0 143 -84h4q60 84 168 84q74 0 114.5 -42t40.5 -111v-293h67v-64h-212v64h65v288q0 43 -30.5 68t-75.5 25q-47 0 -87 -30.5 t-42 -81.5v-269h67v-64z" />
<glyph unicode="n" horiz-adv-x="575" d="M557 0h-212v64h65v288q0 43 -30.5 68t-75.5 25q-48 0 -88.5 -32t-40.5 -86v-263h67v-64h-215v64h68v372h-68v64h143l5 -61h2q56 71 158 71q74 0 114.5 -42t40.5 -111v-293h67v-64z" />
<glyph unicode="o" horiz-adv-x="535" d="M267 442q-133 0 -133 -192t133 -192q134 0 134 192t-134 192zM267 -10q-217 0 -217 260t217 260q218 0 218 -260t-218 -260z" />
<glyph unicode="p" horiz-adv-x="550" d="M232 -200h-215v64h68v572h-68v64h143l5 -61h2q54 71 142 71q191 0 191 -260q0 -121 -54 -190.5t-165 -69.5q-52 0 -116 9v-135h67v-64zM165 326v-266h110q141 0 141 190q0 91 -29 142t-103 51q-47 0 -83 -31.5t-36 -85.5z" />
<glyph unicode="q" horiz-adv-x="550" d="M532 -200h-215v64h68v197h-2q-54 -71 -142 -71q-191 0 -191 259q0 119 54.5 185t166.5 66h261v-64h-67v-572h67v-64zM385 174v259h-110q-141 0 -141 -184q0 -91 29 -142t103 -51q47 0 83 31.5t36 86.5z" />
<glyph unicode="r" horiz-adv-x="385" d="M262 0h-235v64h68v372h-68v64h143l5 -84h2q23 47 67.5 70.5t95.5 23.5v-81h-20q-66 0 -105.5 -37.5t-39.5 -91.5v-236h87v-64z" />
<glyph unicode="s" horiz-adv-x="474" d="M54 374q0 67 52.5 101.5t140.5 34.5q60 0 149 -18v-52h-146q-111 0 -111 -66q0 -30 21.5 -51.5t83.5 -33.5q89 -18 134.5 -50.5t45.5 -101.5q0 -74 -51.5 -110.5t-141.5 -36.5q-92 0 -181 18v52h178q62 0 86 23.5t24 53.5q0 29 -21 49t-83 33q-46 9 -72.5 18t-54.5 25.5 t-40.5 44t-12.5 67.5z" />
<glyph unicode="t" horiz-adv-x="332" d="M207 -10q-120 0 -120 117v329h-70v49l75 15l28 140h47v-140h138v-64h-138v-324q0 -30 12.5 -41t42.5 -11h83v-52q-60 -18 -98 -18z" />
<glyph unicode="u" horiz-adv-x="565" d="M17 500h148v-353q0 -43 30 -67.5t76 -24.5q48 0 88.5 32t40.5 85v264h-68v64h148v-436h67v-64h-142l-5 61h-2q-57 -71 -158 -71q-74 0 -114.5 41.5t-40.5 110.5v294h-68v64z" />
<glyph unicode="v" horiz-adv-x="585" d="M231 436h-60l121 -342h2l121 342h-59v64h211v-64h-64l-163 -441h-98l-161 441h-64v64h214v-64z" />
<glyph unicode="w" horiz-adv-x="809" d="M791 436h-61l-131 -441h-91l-104 362h-2l-99 -362h-89l-135 441h-62v64h212v-64h-62l98 -325h2l100 389h79l108 -389h2l90 325h-61v64h206v-64z" />
<glyph unicode="x" horiz-adv-x="552" d="M221 0h-204v64h46l148 204l-133 168h-61v64h229v-64h-56l104 -133l93 133h-53v64h201v-64h-63l-133 -190l144 -182h52v-64h-226v64h65l-117 147l-105 -147h69v-64z" />
<glyph unicode="y" horiz-adv-x="585" d="M231 436h-60l123 -342h2l120 342h-60v64h211v-64h-64l-149 -399q-24 -67 -64 -136t-73 -111l-57 29l92 173l-170 444h-65v64h214v-64z" />
<glyph unicode="z" horiz-adv-x="471" d="M434 124v-124h-397v61l290 375h-216v-60h-64v124h379v-62l-284 -374h228v60h64z" />
<glyph unicode="{" horiz-adv-x="322" d="M52 310v61q42 6 54 32t12 82v189q0 90 45 123t131 33v-65q-21 0 -35.5 -3t-30 -12.5t-23.5 -31t-8 -55.5v-204q0 -103 -84 -118v-2q84 -15 84 -118v-205q0 -62 26.5 -82t70.5 -20v-64q-86 0 -131 33t-45 123v189q0 56 -12 82.5t-54 32.5z" />
<glyph unicode="|" horiz-adv-x="204" d="M134 -100h-64v880h64v-880z" />
<glyph unicode="}" horiz-adv-x="322" d="M269 371v-61q-42 -5 -53.5 -32t-11.5 -83v-189q0 -90 -45 -123t-132 -33v64q21 0 35.5 3t30.5 12.5t24 31.5t8 55v205q0 57 21.5 84t62.5 34v2q-41 7 -62.5 34t-21.5 84v204q0 34 -8 55.5t-24 31t-30.5 12.5t-35.5 3v65q87 0 132 -33t45 -123v-189q0 -56 11.5 -82.5 t53.5 -31.5z" />
<glyph unicode="~" horiz-adv-x="435" d="M275 331q-19 0 -59 17t-56 17q-41 0 -79 -36l-21 45q43 53 100 53q25 0 62.5 -16.5t52.5 -16.5q41 0 79 36l21 -45q-45 -54 -100 -54z" />
<glyph unicode="&#xa1;" d="M135 377h-75v123h75v-123zM135 -180h-75v267l9 200h57l9 -200v-267z" />
<glyph unicode="&#xa2;" horiz-adv-x="487" d="M307 -100h-43v90q-204 8 -204 260t204 260v90h43v-91q48 -3 120 -17v-116h-63v64h-87q-133 0 -133 -190t133 -190h150v-52q-72 -14 -120 -17v-91z" />
<glyph unicode="&#xa3;" horiz-adv-x="570" d="M510 142v-142h-443v75h48v237h-55v48h55v45q0 52 4 89t18.5 76.5t40 64t70.5 40t107 15.5q66 0 155 -18v-135h-64v74h-81q-45 0 -75.5 -10.5t-47.5 -26t-25.5 -45t-10.5 -55t-2 -67.5v-47h216v-48h-216v-237h242v67h64z" />
<glyph unicode="&#xa4;" horiz-adv-x="502" d="M97 249q0 67 47 114l-76 90l8 8l77 -90q44 36 98 36t97 -36l77 90l9 -8l-77 -89q49 -46 49 -115t-48 -114l75 -86l-9 -9l-76 87q-41 -35 -97 -35q-55 0 -98 35l-74 -87l-9 9l74 86q-47 47 -47 114zM109 249q0 -59 42 -102t100 -43t100.5 43t42.5 102t-42.5 102.5 t-100.5 43.5t-100 -43.5t-42 -102.5z" />
<glyph unicode="&#xa5;" horiz-adv-x="642" d="M625 616h-68l-181 -357h134v-48h-147v-147h68v-64h-222v64h68v147h-148v48h134l-179 357h-67v64h229v-64h-64l140 -286h2l141 286h-66v64h226v-64z" />
<glyph unicode="&#xa6;" horiz-adv-x="204" d="M134 -100h-64v380h64v-380zM134 400h-64v380h64v-380z" />
<glyph unicode="&#xa7;" horiz-adv-x="484" d="M59 344h85q0 -33 21.5 -55.5t83.5 -34.5q89 -18 134.5 -50.5t45.5 -101.5q0 -74 -51.5 -110.5t-141.5 -36.5q-92 0 -181 18v52h178q62 0 86 23.5t24 53.5q0 29 -21 49t-83 33q-46 9 -72.5 18t-54.5 26t-40.5 45.5t-12.5 70.5zM59 589q0 67 52.5 101.5t140.5 34.5 q61 0 150 -18v-52h-147q-111 0 -111 -66q0 -30 21.5 -51.5t83.5 -33.5q89 -18 134.5 -51.5t45.5 -105.5h-86q0 32 -21 53t-83 34q-46 9 -72.5 18t-54.5 25.5t-40.5 44t-12.5 67.5z" />
<glyph unicode="&#xa8;" horiz-adv-x="400" d="M60 705h72v-123h-72v123zM267 705h73v-123h-73v123z" />
<glyph unicode="&#xa9;" horiz-adv-x="767" d="M45 340q0 145 98.5 244t239.5 99t240 -99t99 -244t-99 -244t-240 -99t-239.5 99t-98.5 244zM84 340q0 -129 86.5 -217.5t212.5 -88.5t213.5 88.5t87.5 217.5t-87.5 216.5t-213.5 87.5t-212.5 -87.5t-86.5 -216.5zM476 245v-71q-41 -9 -90 -9q-135 0 -135 175t135 175 q49 0 90 -9v-71h-37v35h-47q-89 0 -89 -130t89 -130h47v35h37z" />
<glyph unicode="&#xaa;" horiz-adv-x="339" d="M156 645h-87v31q59 9 92 9q46 0 68.5 -18t22.5 -64v-136h35v-37h-79l-3 30h-1q-26 -35 -76 -35q-35 0 -55.5 20.5t-20.5 53.5q0 75 86 75h67v27q0 23 -10.5 33.5t-38.5 10.5zM205 517v26h-56q-50 0 -50 -42q0 -39 48 -39q22 0 40 14.5t18 40.5z" />
<glyph unicode="&#xab;" horiz-adv-x="617" d="M70 291l242 163v-77l-160 -112l160 -113v-76l-242 163v52zM305 291l242 163v-77l-160 -112l160 -113v-76l-242 163v52z" />
<glyph unicode="&#xac;" horiz-adv-x="508" d="M45 300h418v-178h-69v108h-349v70z" />
<glyph unicode="&#xad;" horiz-adv-x="500" d="M430 230h-360v70h360v-70z" />
<glyph unicode="&#xae;" horiz-adv-x="767" d="M45 340q0 145 98.5 244t239.5 99t240 -99t99 -244t-99 -244t-240 -99t-239.5 99t-98.5 244zM84 340q0 -129 86.5 -217.5t212.5 -88.5t213.5 88.5t87.5 217.5t-87.5 216.5t-213.5 87.5t-212.5 -87.5t-86.5 -216.5zM358 170h-113v37h31v266h-31v37h156q47 0 74.5 -29.5 t27.5 -73.5q0 -79 -68 -94l66 -106h32v-37h-69l-81 135h-56v-98h31v-37zM395 467h-68v-120h47q40 0 59 12.5t19 47.5q0 27 -15 43.5t-42 16.5z" />
<glyph unicode="&#xaf;" horiz-adv-x="395" d="M60 660h275v-63h-275v63z" />
<glyph unicode="&#xb0;" horiz-adv-x="263" d="M131 645q-61 0 -61 -73t61 -73t61 73t-61 73zM131 460q-111 0 -111 112q0 113 111 113q112 0 112 -113q0 -112 -112 -112z" />
<glyph unicode="&#xb1;" horiz-adv-x="500" d="M277 465v-145h153v-55h-153v-145h-55v145h-152v55h152v145h55zM430 35h-360v55h360v-55z" />
<glyph unicode="&#xb2;" horiz-adv-x="273" d="M94 555v-1h149v-44h-213v48q106 110 130.5 143t24.5 64q0 44 -60 44h-90v37q41 9 91 9q49 0 80.5 -22.5t31.5 -66.5q0 -37 -26 -76.5t-118 -134.5z" />
<glyph unicode="&#xb3;" horiz-adv-x="264" d="M227 850v-42l-106 -97q60 -16 86.5 -43t26.5 -67q0 -45 -30 -70.5t-82 -25.5q-51 0 -92 9v37h89q31 0 46.5 13.5t15.5 35.5q0 31 -26.5 47.5t-99.5 37.5v24l102 97h-122v44h192z" />
<glyph unicode="&#xb4;" horiz-adv-x="274" d="M125 700h89l-88 -140h-66z" />
<glyph unicode="&#xb5;" horiz-adv-x="565" d="M85 436h-68v64h214v-64h-66v-264q0 -58 33.5 -87.5t83.5 -29.5t84 29.5t34 87.5v264h-66v64h213v-64h-67v-261q0 -90 -56 -137.5t-142 -47.5q-67 0 -117 29v-219h-80v365v10v261z" />
<glyph unicode="&#xb6;" horiz-adv-x="580" d="M270 680h135v-680h-51v281h-84q-95 0 -147.5 53t-52.5 146q0 90 53 145t147 55zM459 680h51v-680h-51v680z" />
<glyph unicode="&#xb7;" horiz-adv-x="182" d="M55 375h72v-123h-72v123z" />
<glyph unicode="&#xb8;" horiz-adv-x="286" d="M101 -80v80h43v-51q31 -4 56.5 -22t25.5 -50q0 -36 -25 -56.5t-72 -20.5q-37 0 -69 9v32h59q45 0 45 34q0 40 -63 45z" />
<glyph unicode="&#xb9;" horiz-adv-x="273" d="M30 510v44h80v247l-60 -33l-18 37l82 48h47v-299h82v-44h-213z" />
<glyph unicode="&#xba;" horiz-adv-x="328" d="M164 645q-61 0 -61 -90q0 -91 61 -91t61 91q0 90 -61 90zM164 425q-112 0 -112 130t112 130q111 0 111 -130t-111 -130z" />
<glyph unicode="&#xbb;" horiz-adv-x="617" d="M305 454l242 -163v-52l-242 -163v76l160 113l-160 112v77zM70 454l242 -163v-52l-242 -163v76l160 113l-160 112v77z" />
<glyph unicode="&#xbc;" horiz-adv-x="725" d="M30 340v44h80v247l-60 -33l-18 37l82 48h47v-299h82v-44h-213zM562 680h43l-358 -680h-42zM620 197h38v-78h37v-45h-37v-74h-51v74h-147v44l126 225h52l-126 -224h95z" />
<glyph unicode="&#xbd;" horiz-adv-x="725" d="M30 340v44h80v247l-60 -33l-18 37l82 48h47v-299h82v-44h-213zM532 680h43l-358 -680h-42zM546 45v-1h149v-44h-213v48q107 111 131.5 143.5t24.5 63.5q0 44 -61 44h-90v37q42 9 91 9q50 0 81.5 -22.5t31.5 -66.5q0 -36 -26.5 -76t-118.5 -135z" />
<glyph unicode="&#xbe;" horiz-adv-x="725" d="M542 680h43l-358 -680h-42zM620 197h38v-78h37v-45h-37v-74h-51v74h-147v44l126 225h52l-126 -224h95zM227 680v-42l-106 -97q60 -16 86.5 -43t26.5 -67q0 -45 -30 -70.5t-82 -25.5q-51 0 -92 9v37h89q31 0 46.5 13.5t15.5 35.5q0 31 -26.5 47.5t-99.5 37.5v24l102 97 h-122v44h192z" />
<glyph unicode="&#xbf;" horiz-adv-x="501" d="M386 -111v73h64v-134q-89 -18 -178 -18q-98 0 -159.5 45.5t-61.5 137.5q0 56 17.5 95.5t53.5 64t70 37.5t87 26l4 71h64l5 -126q-115 -28 -163.5 -62t-48.5 -105q0 -47 33 -76t99 -29h114zM352 377h-75v123h75v-123z" />
<glyph unicode="&#xc0;" horiz-adv-x="672" d="M436 64h59l-40 131h-239l-40 -131h60v-64h-226v64h72l195 621h118l195 -621h72v-64h-226v64zM335 582l-97 -317h195l-97 317h-1zM217 870h89l65 -140h-67z" />
<glyph unicode="&#xc1;" horiz-adv-x="672" d="M436 64h59l-40 131h-239l-40 -131h60v-64h-226v64h72l195 621h118l195 -621h72v-64h-226v64zM335 582l-97 -317h195l-97 317h-1zM372 870h89l-88 -140h-66z" />
<glyph unicode="&#xc2;" horiz-adv-x="672" d="M436 64h59l-40 131h-239l-40 -131h60v-64h-226v64h72l195 621h118l195 -621h72v-64h-226v64zM335 582l-97 -317h195l-97 317h-1zM302 870h67l100 -140h-68l-65 77l-65 -77h-69z" />
<glyph unicode="&#xc3;" horiz-adv-x="672" d="M436 64h59l-40 131h-239l-40 -131h60v-64h-226v64h72l195 621h118l195 -621h72v-64h-226v64zM335 582l-97 -317h195l-97 317h-1zM394 751q-18 0 -59 17t-56 17q-41 0 -79 -36l-21 45q43 53 100 53q25 0 62.5 -16.5t52.5 -16.5q41 0 79 36l21 -45q-45 -54 -100 -54z" />
<glyph unicode="&#xc4;" horiz-adv-x="672" d="M436 64h59l-40 131h-239l-40 -131h60v-64h-226v64h72l195 621h118l195 -621h72v-64h-226v64zM335 582l-97 -317h195l-97 317h-1zM196 875h72v-123h-72v123zM403 875h73v-123h-73v123z" />
<glyph unicode="&#xc5;" horiz-adv-x="672" d="M436 64h59l-40 131h-239l-40 -131h60v-64h-226v64h72l195 621h118l195 -621h72v-64h-226v64zM335 582l-97 -317h195l-97 317h-1zM337 838q-45 0 -45 -48q0 -49 45 -49q44 0 44 49q0 48 -44 48zM337 710q-89 0 -89 80t89 80q88 0 88 -80t-88 -80z" />
<glyph unicode="&#xc6;" horiz-adv-x="897" d="M845 142v-142h-395v195h-209l-68 -131h63v-64h-226v64h69l328 616h438v-143h-64v68h-245v-219h260v-75h-260v-236h245v67h64zM443 582l-165 -317h172v317h-7z" />
<glyph unicode="&#xc7;" horiz-adv-x="555" d="M502 142v-134q-85 -16 -161 -18v-41q32 -4 57.5 -22t25.5 -50q0 -36 -25.5 -56.5t-72.5 -20.5q-36 0 -69 9v32h59q45 0 45 34q0 40 -62 45v71q-69 5 -118 36.5t-74.5 83t-36 107t-10.5 122.5q0 70 12 127.5t39.5 110t82 82.5t131.5 30q90 0 177 -18v-135h-63v74h-104 q-186 0 -186 -271t186 -271h104v73h63z" />
<glyph unicode="&#xc8;" horiz-adv-x="542" d="M490 142v-142h-463v64h68v552h-68v64h463v-143h-64v68h-245v-219h260v-75h-260v-236h245v67h64zM179 870h89l65 -140h-67z" />
<glyph unicode="&#xc9;" horiz-adv-x="542" d="M490 142v-142h-463v64h68v552h-68v64h463v-143h-64v68h-245v-219h260v-75h-260v-236h245v67h64zM313 870h89l-88 -140h-66z" />
<glyph unicode="&#xca;" horiz-adv-x="542" d="M490 142v-142h-463v64h68v552h-68v64h463v-143h-64v68h-245v-219h260v-75h-260v-236h245v67h64zM249 870h67l100 -140h-68l-65 77l-65 -77h-69z" />
<glyph unicode="&#xcb;" horiz-adv-x="542" d="M490 142v-142h-463v64h68v552h-68v64h463v-143h-64v68h-245v-219h260v-75h-260v-236h245v67h64zM137 875h72v-123h-72v123zM344 875h73v-123h-73v123z" />
<glyph unicode="&#xcc;" horiz-adv-x="276" d="M249 616h-68v-552h68v-64h-222v64h68v552h-68v64h222v-64zM15 870h89l65 -140h-67z" />
<glyph unicode="&#xcd;" horiz-adv-x="276" d="M249 616h-68v-552h68v-64h-222v64h68v552h-68v64h222v-64zM172 870h89l-88 -140h-66z" />
<glyph unicode="&#xce;" horiz-adv-x="276" d="M249 616h-68v-552h68v-64h-222v64h68v552h-68v64h222v-64zM104 870h67l100 -140h-68l-65 77l-65 -77h-69z" />
<glyph unicode="&#xcf;" horiz-adv-x="276" d="M249 616h-68v-552h68v-64h-222v64h68v552h-68v64h222v-64zM-2 875h72v-123h-72v123zM205 875h73v-123h-73v123z" />
<glyph unicode="&#xd0;" horiz-adv-x="647" d="M322 0h-295v64h68v256h-68v50h68v246h-68v64h295q265 0 265 -340t-265 -340zM181 75h134q184 0 184 265t-184 265h-134v-235h109v-50h-109v-245z" />
<glyph unicode="&#xd1;" horiz-adv-x="657" d="M630 616h-68v-616h-86l-296 515h-1v-451h67v-64h-219v64h68v552h-68v64h154l296 -526h2v462h-68v64h219v-64zM386 751q-18 0 -59 17t-56 17q-41 0 -79 -36l-21 45q43 53 100 53q25 0 62.5 -16.5t52.5 -16.5q41 0 79 36l21 -45q-45 -54 -100 -54z" />
<glyph unicode="&#xd2;" horiz-adv-x="635" d="M317 -10q-257 0 -257 350t257 350q258 0 258 -350t-258 -350zM317 69q169 0 169 271t-169 271q-168 0 -168 -271t168 -271zM193 870h89l65 -140h-67z" />
<glyph unicode="&#xd3;" horiz-adv-x="635" d="M317 -10q-257 0 -257 350t257 350q258 0 258 -350t-258 -350zM317 69q169 0 169 271t-169 271q-168 0 -168 -271t168 -271zM351 870h89l-88 -140h-66z" />
<glyph unicode="&#xd4;" horiz-adv-x="635" d="M317 -10q-257 0 -257 350t257 350q258 0 258 -350t-258 -350zM317 69q169 0 169 271t-169 271q-168 0 -168 -271t168 -271zM284 870h67l100 -140h-68l-65 77l-65 -77h-69z" />
<glyph unicode="&#xd5;" horiz-adv-x="635" d="M317 -10q-257 0 -257 350t257 350q258 0 258 -350t-258 -350zM317 69q169 0 169 271t-169 271q-168 0 -168 -271t168 -271zM375 751q-19 0 -59 17t-56 17q-41 0 -79 -36l-21 45q43 53 100 53q25 0 62.5 -16.5t52.5 -16.5q41 0 79 36l21 -45q-45 -54 -100 -54z" />
<glyph unicode="&#xd6;" horiz-adv-x="635" d="M317 -10q-257 0 -257 350t257 350q258 0 258 -350t-258 -350zM317 69q169 0 169 271t-169 271q-168 0 -168 -271t168 -271zM177 875h72v-123h-72v123zM384 875h73v-123h-73v123z" />
<glyph unicode="&#xd7;" horiz-adv-x="500" d="M119 445l131 -131l131 131l49 -49l-131 -131l131 -131l-49 -49l-131 131l-131 -131l-49 49l131 131l-131 131z" />
<glyph unicode="&#xd8;" horiz-adv-x="635" d="M522 720h40l-62 -104q75 -86 75 -276q0 -350 -258 -350q-100 0 -158 49l-47 -79h-40l61 104q-73 86 -73 276q0 350 257 350q97 0 158 -50zM317 69q169 0 169 271q0 127 -35 192l-247 -416q41 -47 113 -47zM149 340q0 -129 34 -192l246 416q-42 47 -112 47 q-168 0 -168 -271z" />
<glyph unicode="&#xd9;" horiz-adv-x="651" d="M249 616h-68v-376q0 -33 5 -59t18.5 -53.5t44.5 -43t78 -15.5q143 0 143 171v376h-68v64h222v-64h-68v-376q0 -124 -60 -187t-169 -63q-110 0 -171 63t-61 187v376h-68v64h222v-64zM211 870h89l65 -140h-67z" />
<glyph unicode="&#xda;" horiz-adv-x="651" d="M249 616h-68v-376q0 -33 5 -59t18.5 -53.5t44.5 -43t78 -15.5q143 0 143 171v376h-68v64h222v-64h-68v-376q0 -124 -60 -187t-169 -63q-110 0 -171 63t-61 187v376h-68v64h222v-64zM359 870h89l-88 -140h-66z" />
<glyph unicode="&#xdb;" horiz-adv-x="651" d="M249 616h-68v-376q0 -33 5 -59t18.5 -53.5t44.5 -43t78 -15.5q143 0 143 171v376h-68v64h222v-64h-68v-376q0 -124 -60 -187t-169 -63q-110 0 -171 63t-61 187v376h-68v64h222v-64zM291 870h67l100 -140h-68l-65 77l-65 -77h-69z" />
<glyph unicode="&#xdc;" horiz-adv-x="651" d="M249 616h-68v-376q0 -33 5 -59t18.5 -53.5t44.5 -43t78 -15.5q143 0 143 171v376h-68v64h222v-64h-68v-376q0 -124 -60 -187t-169 -63q-110 0 -171 63t-61 187v376h-68v64h222v-64zM185 875h72v-123h-72v123zM392 875h73v-123h-73v123z" />
<glyph unicode="&#xdd;" horiz-adv-x="627" d="M239 616h-65l140 -286h2l141 286h-66v64h226v-64h-67l-194 -384v-168h67v-64h-221v64h67v168l-193 384h-66v64h229v-64zM353 870h89l-88 -140h-66z" />
<glyph unicode="&#xde;" horiz-adv-x="590" d="M181 0h-154v64h68v552h-68v64h154v-140h159q95 0 147.5 -55t52.5 -145q0 -93 -52.5 -146t-147.5 -53h-159v-141zM327 465h-146v-249h146q124 0 124 124q0 60 -33 92.5t-91 32.5z" />
<glyph unicode="&#xdf;" horiz-adv-x="596" d="M384 362q0 -20 16.5 -38.5t40.5 -35.5t48 -36.5t40.5 -49t16.5 -65.5q0 -71 -50 -109t-127 -38q-66 0 -127 18v52h109q61 0 85.5 24.5t24.5 55.5q0 25 -24.5 53t-54 49.5t-54 52t-24.5 59.5q0 26 25 59l50 68.5t25 68.5q0 84 -112 84q-117 0 -117 -134v-500h-148v64h68 v372h-70v49l70 15q0 200 206 200q91 0 138.5 -34.5t47.5 -100.5q0 -33 -16 -66t-35.5 -54.5t-35.5 -44.5t-16 -38z" />
<glyph unicode="&#xe0;" horiz-adv-x="529" d="M252 440h-172v52q105 18 179 18q89 0 133 -36.5t44 -126.5v-283h75v-64h-150l-5 61h-2q-32 -40 -67.5 -55.5t-86.5 -15.5q-70 0 -112 40t-42 106q0 78 46.5 113.5t123.5 35.5h140v58q0 50 -22 73.5t-82 23.5zM356 172v56h-122q-108 0 -108 -88q0 -43 29 -64t76 -21t86 31 t39 86zM147 700h89l65 -140h-67z" />
<glyph unicode="&#xe1;" horiz-adv-x="529" d="M252 440h-172v52q105 18 179 18q89 0 133 -36.5t44 -126.5v-283h75v-64h-150l-5 61h-2q-32 -40 -67.5 -55.5t-86.5 -15.5q-70 0 -112 40t-42 106q0 78 46.5 113.5t123.5 35.5h140v58q0 50 -22 73.5t-82 23.5zM356 172v56h-122q-108 0 -108 -88q0 -43 29 -64t76 -21t86 31 t39 86zM278 700h89l-88 -140h-66z" />
<glyph unicode="&#xe2;" horiz-adv-x="529" d="M252 440h-172v52q105 18 179 18q89 0 133 -36.5t44 -126.5v-283h75v-64h-150l-5 61h-2q-32 -40 -67.5 -55.5t-86.5 -15.5q-70 0 -112 40t-42 106q0 78 46.5 113.5t123.5 35.5h140v58q0 50 -22 73.5t-82 23.5zM356 172v56h-122q-108 0 -108 -88q0 -43 29 -64t76 -21t86 31 t39 86zM227 700h67l100 -140h-68l-65 77l-65 -77h-69z" />
<glyph unicode="&#xe3;" horiz-adv-x="529" d="M252 440h-172v52q105 18 179 18q89 0 133 -36.5t44 -126.5v-283h75v-64h-150l-5 61h-2q-32 -40 -67.5 -55.5t-86.5 -15.5q-70 0 -112 40t-42 106q0 78 46.5 113.5t123.5 35.5h140v58q0 50 -22 73.5t-82 23.5zM356 172v56h-122q-108 0 -108 -88q0 -43 29 -64t76 -21t86 31 t39 86zM317 581q-19 0 -59 17t-56 17q-41 0 -79 -36l-21 45q43 53 100 53q25 0 62.5 -16.5t52.5 -16.5q41 0 79 36l21 -45q-45 -54 -100 -54z" />
<glyph unicode="&#xe4;" horiz-adv-x="529" d="M252 440h-172v52q105 18 179 18q89 0 133 -36.5t44 -126.5v-283h75v-64h-150l-5 61h-2q-32 -40 -67.5 -55.5t-86.5 -15.5q-70 0 -112 40t-42 106q0 78 46.5 113.5t123.5 35.5h140v58q0 50 -22 73.5t-82 23.5zM356 172v56h-122q-108 0 -108 -88q0 -43 29 -64t76 -21t86 31 t39 86zM112 705h72v-123h-72v123zM319 705h73v-123h-73v123z" />
<glyph unicode="&#xe5;" horiz-adv-x="529" d="M252 440h-172v52q105 18 179 18q89 0 133 -36.5t44 -126.5v-283h75v-64h-150l-5 61h-2q-32 -40 -67.5 -55.5t-86.5 -15.5q-70 0 -112 40t-42 106q0 78 46.5 113.5t123.5 35.5h140v58q0 50 -22 73.5t-82 23.5zM356 172v56h-122q-108 0 -108 -88q0 -43 29 -64t76 -21t86 31 t39 86zM253 668q-45 0 -45 -48q0 -49 45 -49q44 0 44 49q0 48 -44 48zM253 540q-89 0 -89 80t89 80q88 0 88 -80t-88 -80z" />
<glyph unicode="&#xe6;" horiz-adv-x="823" d="M627 226h-184q4 -166 132 -166h165v-52q-87 -18 -165 -18q-140 0 -189 110q-58 -110 -186 -110q-70 0 -112 40t-42 106q0 78 46.5 113.5t123.5 35.5h140v58q0 50 -22 73.5t-82 23.5h-172v52q105 18 179 18q125 0 156 -84q55 84 172 84q88 0 137 -44t49 -104 q0 -59 -33 -97.5t-113 -38.5zM356 172v56h-122q-108 0 -108 -88q0 -43 29 -64t76 -21t86 31t39 86zM585 440q-67 0 -101.5 -43t-39.5 -115h163q46 0 66 22.5t20 54.5q0 33 -29 57t-79 24z" />
<glyph unicode="&#xe7;" horiz-adv-x="445" d="M236 -80v72q-186 16 -186 258q0 260 217 260q63 0 150 -18v-116h-63v64h-87q-133 0 -133 -190t133 -190h150v-52q-81 -17 -138 -18v-41q31 -4 56.5 -22t25.5 -50q0 -36 -25 -56.5t-72 -20.5q-37 0 -69 9v32h59q45 0 45 34q0 40 -63 45z" />
<glyph unicode="&#xe8;" horiz-adv-x="515" d="M319 226h-184q4 -166 132 -166h165v-52q-87 -18 -165 -18q-217 0 -217 260q0 121 56.5 190.5t172.5 69.5q88 0 137 -44t49 -104q0 -59 -33 -97.5t-113 -38.5zM277 440q-67 0 -101.5 -43t-39.5 -115h163q46 0 66 22.5t20 54.5q0 33 -29 57t-79 24zM163 700h89l65 -140h-67 z" />
<glyph unicode="&#xe9;" horiz-adv-x="515" d="M319 226h-184q4 -166 132 -166h165v-52q-87 -18 -165 -18q-217 0 -217 260q0 121 56.5 190.5t172.5 69.5q88 0 137 -44t49 -104q0 -59 -33 -97.5t-113 -38.5zM277 440q-67 0 -101.5 -43t-39.5 -115h163q46 0 66 22.5t20 54.5q0 33 -29 57t-79 24zM309 700h89l-88 -140 h-66z" />
<glyph unicode="&#xea;" horiz-adv-x="515" d="M319 226h-184q4 -166 132 -166h165v-52q-87 -18 -165 -18q-217 0 -217 260q0 121 56.5 190.5t172.5 69.5q88 0 137 -44t49 -104q0 -59 -33 -97.5t-113 -38.5zM277 440q-67 0 -101.5 -43t-39.5 -115h163q46 0 66 22.5t20 54.5q0 33 -29 57t-79 24zM237 700h67l100 -140 h-68l-65 77l-65 -77h-69z" />
<glyph unicode="&#xeb;" horiz-adv-x="515" d="M319 226h-184q4 -166 132 -166h165v-52q-87 -18 -165 -18q-217 0 -217 260q0 121 56.5 190.5t172.5 69.5q88 0 137 -44t49 -104q0 -59 -33 -97.5t-113 -38.5zM277 440q-67 0 -101.5 -43t-39.5 -115h163q46 0 66 22.5t20 54.5q0 33 -29 57t-79 24zM127 705h72v-123h-72 v123zM334 705h73v-123h-73v123z" />
<glyph unicode="&#xec;" horiz-adv-x="260" d="M7 700h89l65 -140h-67zM242 0h-215v67h68v365h-68v68h148v-433h67v-67z" />
<glyph unicode="&#xed;" horiz-adv-x="260" d="M164 700h89l-88 -140h-66zM242 0h-215v67h68v365h-68v68h148v-433h67v-67z" />
<glyph unicode="&#xee;" horiz-adv-x="260" d="M242 0h-215v67h68v365h-68v68h148v-433h67v-67zM100 700h67l100 -140h-68l-65 77l-65 -77h-69z" />
<glyph unicode="&#xef;" horiz-adv-x="260" d="M-5 705h72v-123h-72v123zM202 705h73v-123h-73v123zM242 0h-215v67h68v365h-68v68h148v-433h67v-67z" />
<glyph unicode="&#xf0;" horiz-adv-x="547" d="M535 595l-86 -32q48 -90 48 -223q0 -62 -4.5 -109t-19.5 -94.5t-39.5 -78t-67.5 -49.5t-102 -19q-102 0 -158 56t-56 156q0 108 56 156t176 48q50 0 124 -11q-9 85 -40 137l-94 -35l-10 32l83 31q-48 51 -125 51h-135v61q86 18 142 18q134 0 204 -98l94 36zM262 69 q30 0 53.5 9t39 21t26 35t15.5 40t7.5 48.5t3 47.5t0.5 48v14h-123q-76 0 -112 -31t-36 -99q0 -133 126 -133z" />
<glyph unicode="&#xf1;" horiz-adv-x="575" d="M557 0h-212v64h65v288q0 43 -30.5 68t-75.5 25q-48 0 -88.5 -32t-40.5 -86v-263h67v-64h-215v64h68v372h-68v64h143l5 -61h2q56 71 158 71q74 0 114.5 -42t40.5 -111v-293h67v-64zM350 581q-18 0 -59 17t-56 17q-41 0 -79 -36l-21 45q43 53 100 53q25 0 62.5 -16.5 t52.5 -16.5q41 0 79 36l21 -45q-45 -54 -100 -54z" />
<glyph unicode="&#xf2;" horiz-adv-x="535" d="M259 442q-133 0 -133 -192t133 -192q134 0 134 192t-134 192zM259 -10q-217 0 -217 260t217 260q218 0 218 -260t-218 -260zM154 700h89l65 -140h-67z" />
<glyph unicode="&#xf3;" horiz-adv-x="535" d="M259 442q-133 0 -133 -192t133 -192q134 0 134 192t-134 192zM259 -10q-217 0 -217 260t217 260q218 0 218 -260t-218 -260zM302 700h89l-88 -140h-66z" />
<glyph unicode="&#xf4;" horiz-adv-x="535" d="M259 442q-133 0 -133 -192t133 -192q134 0 134 192t-134 192zM259 -10q-217 0 -217 260t217 260q218 0 218 -260t-218 -260zM234 700h67l100 -140h-68l-65 77l-65 -77h-69z" />
<glyph unicode="&#xf5;" horiz-adv-x="535" d="M259 442q-133 0 -133 -192t133 -192q134 0 134 192t-134 192zM259 -10q-217 0 -217 260t217 260q218 0 218 -260t-218 -260zM325 581q-19 0 -59 17t-56 17q-41 0 -79 -36l-21 45q43 53 100 53q25 0 62.5 -16.5t52.5 -16.5q41 0 79 36l21 -45q-45 -54 -100 -54z" />
<glyph unicode="&#xf6;" horiz-adv-x="535" d="M259 442q-133 0 -133 -192t133 -192q134 0 134 192t-134 192zM259 -10q-217 0 -217 260t217 260q218 0 218 -260t-218 -260zM127 705h72v-123h-72v123zM334 705h73v-123h-73v123z" />
<glyph unicode="&#xf7;" horiz-adv-x="500" d="M430 220h-360v60h360v-60zM217 156h65v-117h-65v117zM217 461h65v-117h-65v117z" />
<glyph unicode="&#xf8;" horiz-adv-x="535" d="M430 540h40l-51 -83q66 -66 66 -207q0 -260 -218 -260q-71 0 -119 28l-36 -58h-40l48 78q-70 64 -70 212q0 260 217 260q76 0 125 -32zM267 442q-133 0 -133 -192q0 -93 30 -141l187 304q-32 29 -84 29zM401 250q0 88 -27 134l-186 -302q30 -24 79 -24q134 0 134 192z " />
<glyph unicode="&#xf9;" horiz-adv-x="565" d="M17 500h148v-353q0 -43 30 -67.5t76 -24.5q48 0 88.5 32t40.5 85v264h-68v64h148v-436h67v-64h-142l-5 61h-2q-57 -71 -158 -71q-74 0 -114.5 41.5t-40.5 110.5v294h-68v64zM139 700h89l65 -140h-67z" />
<glyph unicode="&#xfa;" horiz-adv-x="565" d="M17 500h148v-353q0 -43 30 -67.5t76 -24.5q48 0 88.5 32t40.5 85v264h-68v64h148v-436h67v-64h-142l-5 61h-2q-57 -71 -158 -71q-74 0 -114.5 41.5t-40.5 110.5v294h-68v64zM292 700h89l-88 -140h-66z" />
<glyph unicode="&#xfb;" horiz-adv-x="565" d="M17 500h148v-353q0 -43 30 -67.5t76 -24.5q48 0 88.5 32t40.5 85v264h-68v64h148v-436h67v-64h-142l-5 61h-2q-57 -71 -158 -71q-74 0 -114.5 41.5t-40.5 110.5v294h-68v64zM231 700h67l100 -140h-68l-65 77l-65 -77h-69z" />
<glyph unicode="&#xfc;" horiz-adv-x="565" d="M17 500h148v-353q0 -43 30 -67.5t76 -24.5q48 0 88.5 32t40.5 85v264h-68v64h148v-436h67v-64h-142l-5 61h-2q-57 -71 -158 -71q-74 0 -114.5 41.5t-40.5 110.5v294h-68v64zM125 705h72v-123h-72v123zM332 705h73v-123h-73v123z" />
<glyph unicode="&#xfd;" horiz-adv-x="585" d="M231 436h-60l123 -342h2l120 342h-60v64h211v-64h-64l-149 -399q-24 -67 -64 -136t-73 -111l-57 29l92 173l-170 444h-65v64h214v-64zM329 699h89l-88 -140h-66z" />
<glyph unicode="&#xfe;" horiz-adv-x="550" d="M232 -200h-215v64h68v772h-68v64h148v-261h2q54 71 142 71q191 0 191 -260q0 -121 -54 -190.5t-165 -69.5q-52 0 -116 9v-135h67v-64zM165 326v-266h110q141 0 141 190q0 91 -29 142t-103 51q-47 0 -83 -31.5t-36 -85.5z" />
<glyph unicode="&#xff;" horiz-adv-x="585" d="M231 436h-60l123 -342h2l120 342h-60v64h211v-64h-64l-149 -399q-24 -67 -64 -136t-73 -111l-57 29l92 173l-170 444h-65v64h214v-64zM152 705h72v-123h-72v123zM359 705h73v-123h-73v123z" />
<glyph unicode="&#x152;" horiz-adv-x="936" d="M884 142v-142h-383v85q-60 -95 -184 -95q-257 0 -257 350t257 350q124 0 184 -95v85h383v-143h-64v68h-245v-219h260v-75h-260v-236h245v67h64zM317 69q169 0 169 271t-169 271q-168 0 -168 -271t168 -271z" />
<glyph unicode="&#x153;" horiz-adv-x="869" d="M672 226h-184q5 -166 133 -166h165v-52q-89 -18 -165 -18q-129 0 -177 100q-48 -100 -177 -100q-217 0 -217 260t217 260q131 0 179 -105q53 105 186 105q88 0 137.5 -44t49.5 -104q0 -59 -33.5 -97.5t-113.5 -38.5zM267 442q-133 0 -133 -192t133 -192q134 0 134 192 t-134 192zM631 440q-67 0 -101.5 -43t-39.5 -115h163q46 0 66 22.5t20 54.5q0 33 -29 57t-79 24z" />
<glyph unicode="&#x178;" horiz-adv-x="627" d="M239 616h-65l140 -286h2l141 286h-66v64h226v-64h-67l-194 -384v-168h67v-64h-221v64h67v168l-193 384h-66v64h229v-64zM174 875h72v-123h-72v123zM381 875h73v-123h-73v123z" />
<glyph unicode="&#x2c6;" horiz-adv-x="387" d="M160 700h67l100 -140h-68l-65 77l-65 -77h-69z" />
<glyph unicode="&#x2dc;" horiz-adv-x="435" d="M275 581q-19 0 -59 17t-56 17q-41 0 -79 -36l-21 45q43 53 100 53q25 0 62.5 -16.5t52.5 -16.5q41 0 79 36l21 -45q-45 -54 -100 -54z" />
<glyph unicode="&#x2013;" horiz-adv-x="660" d="M590 230h-520v70h520v-70z" />
<glyph unicode="&#x2014;" horiz-adv-x="860" d="M790 230h-720v70h720v-70z" />
<glyph unicode="&#x2018;" d="M135 680v-253h-75v73q0 92 28 180h47z" />
<glyph unicode="&#x2019;" d="M60 427v253h75v-73q0 -92 -28 -180h-47z" />
<glyph unicode="&#x201a;" d="M60 -130v252h75v-72q0 -92 -28 -180h-47z" />
<glyph unicode="&#x201c;" horiz-adv-x="377" d="M317 680v-253h-75v73q0 92 28 180h47zM135 680v-253h-75v73q0 92 28 180h47z" />
<glyph unicode="&#x201d;" horiz-adv-x="377" d="M60 427v253h75v-73q0 -92 -28 -180h-47zM242 427v253h75v-73q0 -96 -28 -180h-47z" />
<glyph unicode="&#x201e;" horiz-adv-x="377" d="M60 -130v252h75v-72q0 -92 -28 -180h-47zM242 -130v252h75v-72q0 -96 -28 -180h-47z" />
<glyph unicode="&#x2022;" horiz-adv-x="182" d="M55 375h72v-123h-72v123z" />
<glyph unicode="&#x2026;" horiz-adv-x="545" d="M60 122h75v-122h-75v122zM235 122h75v-122h-75v122zM410 122h75v-122h-75v122z" />
<glyph unicode="&#x2039;" horiz-adv-x="382" d="M70 291l242 163v-77l-160 -112l160 -113v-76l-242 163v52z" />
<glyph unicode="&#x203a;" horiz-adv-x="382" d="M70 454l242 -163v-52l-242 -163v76l160 113l-160 112v77z" />
<glyph unicode="&#x20ac;" horiz-adv-x="627" d="M420 405h-203q-3 -22 -3 -65q0 -41 4 -73h202v-47h-194q37 -151 174 -151h104v73h63v-134q-87 -18 -177 -18q-213 0 -255 230h-75v47h68q-3 36 -3 73q0 43 2 65h-67v47h73q41 238 257 238q90 0 177 -18v-135h-63v74h-104q-140 0 -176 -159h196v-47z" />
<glyph unicode="&#x2122;" horiz-adv-x="690" d="M660 340h-112v37h32l-16 213h-1l-72 -250h-39l-73 250h-1l-15 -213h33v-37h-111v37h31l17 266h-30v37h95l74 -254h1l71 254h94v-37h-30l20 -266h32v-37zM208 340h-113v37h32v260h-60v-32h-37v75h243v-75h-36v32h-61v-260h32v-37z" />
</font>
</defs>
</svg>
